<svg width="1084px" height="580px" viewBox="0 0 1084 580" version="1.1" xmlns="http://www.w3.org/2000/svg" xmlns:xlink="http://www.w3.org/1999/xlink">
    <g id="Page-1" stroke="none" stroke-width="1" fill="none" fill-rule="evenodd">
        <g id="home-page" stroke="#E8E8E8" stroke-width="2">
            <g id="waves" transform="translate(-2334.000000, -16.000000)">
                <path d="M0,626 C775.460171,626 1157.22973,288 1907.36694,288 C2657.50415,288 3058.30296,626 3808.9955,626 C4559.68803,626 4932.27617,288 5697,288" id="Path-2_19" opacity="1"></path>
                <path d="M259,579 C963.951417,579 1311.00857,272 1992.93951,272 C2674.87046,272 3039.22662,579 3721.6624,579 C4404.09818,579 4742.80872,272 5438,272" id="Path-2_18" opacity="0.947368421"></path>
                <path d="M494,535 C1134.84018,535 1450.33449,256 2070.24777,256 C2690.16106,256 3021.38114,535 3641.75334,535 C4262.12555,535 4570.03234,256 5202,256" id="Path-2_17" opacity="0.894736842"></path>
                <path d="M708,494 C1290.58198,494 1577.39499,240 2140.95252,240 C2704.51005,240 3005.61921,494 3569.59395,494 C4133.56868,494 4413.48394,240 4988,240" id="Path-2_16" opacity="0.842105263"></path>
                <path d="M902,455 C1431.63235,455 1692.37755,224 2204.71455,224 C2717.05155,224 2990.79354,455 3503.50983,455 C4016.22611,455 4270.70047,224 4793,224" id="Path-2_15" opacity="0.789473684"></path>
                <path d="M1079,418 C1560.44684,418 1797.46965,208 2263.19464,208 C2728.91964,208 2977.75681,418 3443.82659,418 C3909.89636,418 4141.21886,208 4616,208" id="Path-2_14" opacity="0.736842105"></path>
                <path d="M1240,383 C1677.61707,383 1893.06189,192 2316.3884,192 C2739.71491,192 2965.89855,383 3389.53845,383 C3813.17834,383 4023.44179,192 4455,192" id="Path-2_13" opacity="0.684210526"></path>
                <path d="M1386,350 C1783.87082,350 1979.74803,176 2364.62622,176 C2749.50441,176 2955.14509,350 3340.3082,350 C3725.47132,350 3916.63775,176 4309,176" id="Path-2_12" opacity="0.631578947"></path>
                <path d="M1519,318 C1880.66363,318 2058.71554,160 2408.56889,160 C2758.42225,160 2945.34912,318 3295.46148,318 C3645.57383,318 3819.34365,160 4176,160" id="Path-2_11" opacity="0.578947368"></path>
                <path d="M1640,288 C1968.72324,288 2130.55815,144 2448.54681,144 C2766.53546,144 2936.43701,288 3254.66107,288 C3572.88513,288 3730.82797,144 4055,144" id="Path-2_10" opacity="0.526315789"></path>
                <path d="M1750,259 C2048.77744,259 2195.86963,128 2484.89037,128 C2773.91111,128 2928.33509,259 3217.56979,259 C3506.8045,259 3650.35917,128 3945,128" id="Path-2_9" opacity="0.473684211"></path>
                <path d="M1850,231 C2121.55398,231 2255.24369,112 2517.92997,112 C2780.61625,112 2920.9697,231 3183.85045,231 C3446.7312,231 3577.20572,112 3845,112" id="Path-2_8" opacity="0.421052632"></path>
                <path d="M1940,204 C2186.91675,204 2308.47722,96 2547.33081,96 C2786.1844,96 2913.80403,204 3152.83444,204 C3391.86486,204 3510.50184,96 3754,96" id="Path-2_7" opacity="0.368421053"></path>
                <path d="M2022,178 C2246.4574,178 2356.96083,80 2574.08848,80 C2791.21614,80 2907.22759,178 3124.51599,178 C3341.80438,178 3449.65024,80 3671,80" id="Path-2_6" opacity="0.315789474"></path>
                <path d="M2097,153 C2301.03981,153 2401.49138,64 2598.86818,64 C2796.24499,64 2901.70355,153 3099.22648,153 C3296.74941,153 3394.78515,64 3596,64" id="Path-2_5" opacity="0.263157895"></path>
                <path d="M2165,129 C2350.52786,129 2441.86574,48 2621.33511,48 C2800.80449,48 2896.69509,129 3076.29733,129 C3255.89956,129 3345.0408,48 3528,48" id="Path-2_4" opacity="0.210526316"></path>
                <path d="M2227,106 C2395.64932,106 2478.67766,32 2641.81967,32 C2804.96167,32 2892.12855,106 3055.39133,106 C3218.65411,106 3299.68566,32 3466,32" id="Path-2_3" opacity="0.157894737"></path>
                <path d="M2283,83 C2436.26806,83 2511.72401,16 2659.98704,16 C2808.25007,16 2887.46711,83 3035.8399,83 C3184.2127,83 3257.85395,16 3409,16" id="Path-2_2" opacity="0.105263158"></path>
                <path d="M2334,60.8805899 C2473.3841,60.8805899 2542.00478,0 2676.83724,0 C2811.66969,0 2883.71077,60.8805899 3018.64304,60.8805899 C3153.57531,60.8805899 3220.54569,0 3358,0" id="Path-2_1" opacity="0.0526315789"></path>
            </g>
        </g>
    </g>
</svg>
